<mxfile host="app.diagrams.net" modified="2024-05-28T10:34:40.664Z" agent="Mozilla/5.0 (Windows NT 10.0; Win64; x64) AppleWebKit/537.36 (KHTML, like Gecko) Chrome/125.0.0.0 Safari/537.36" etag="a5N5xS5jwUNvU1vM7mp0" version="24.4.4" type="github">
  <diagram name="Page-1" id="Jd9OpXFkJB6nbH1-hjCZ">
    <mxGraphModel dx="2074" dy="1106" grid="1" gridSize="10" guides="1" tooltips="1" connect="1" arrows="1" fold="1" page="1" pageScale="1" pageWidth="827" pageHeight="1169" math="0" shadow="0">
      <root>
        <mxCell id="0" />
        <mxCell id="1" parent="0" />
        <mxCell id="7zw94ZbZw6cgDd5bHP66-3" value="" style="rounded=0;whiteSpace=wrap;html=1;fillColor=#dae8fc;strokeColor=#6c8ebf;" vertex="1" parent="1">
          <mxGeometry x="200" y="20" width="480" height="820" as="geometry" />
        </mxCell>
        <mxCell id="7zw94ZbZw6cgDd5bHP66-25" style="edgeStyle=none;rounded=0;orthogonalLoop=1;jettySize=auto;html=1;strokeColor=default;align=center;verticalAlign=middle;fontFamily=Helvetica;fontSize=11;fontColor=default;labelBackgroundColor=default;endArrow=none;endFill=0;" edge="1" parent="1" source="7zw94ZbZw6cgDd5bHP66-4" target="7zw94ZbZw6cgDd5bHP66-11">
          <mxGeometry relative="1" as="geometry" />
        </mxCell>
        <mxCell id="7zw94ZbZw6cgDd5bHP66-34" style="edgeStyle=none;rounded=0;orthogonalLoop=1;jettySize=auto;html=1;strokeColor=default;align=center;verticalAlign=middle;fontFamily=Helvetica;fontSize=11;fontColor=default;labelBackgroundColor=default;endArrow=none;endFill=0;" edge="1" parent="1" source="7zw94ZbZw6cgDd5bHP66-4" target="7zw94ZbZw6cgDd5bHP66-18">
          <mxGeometry relative="1" as="geometry" />
        </mxCell>
        <mxCell id="7zw94ZbZw6cgDd5bHP66-39" style="edgeStyle=none;rounded=0;orthogonalLoop=1;jettySize=auto;html=1;entryX=0;entryY=1;entryDx=0;entryDy=0;strokeColor=default;align=center;verticalAlign=middle;fontFamily=Helvetica;fontSize=11;fontColor=default;labelBackgroundColor=default;endArrow=none;endFill=0;" edge="1" parent="1" source="7zw94ZbZw6cgDd5bHP66-4" target="7zw94ZbZw6cgDd5bHP66-7">
          <mxGeometry relative="1" as="geometry" />
        </mxCell>
        <mxCell id="7zw94ZbZw6cgDd5bHP66-4" value="Administrateur" style="shape=umlActor;verticalLabelPosition=bottom;verticalAlign=top;html=1;outlineConnect=0;" vertex="1" parent="1">
          <mxGeometry x="70" y="330" width="30" height="60" as="geometry" />
        </mxCell>
        <mxCell id="7zw94ZbZw6cgDd5bHP66-24" style="edgeStyle=none;rounded=0;orthogonalLoop=1;jettySize=auto;html=1;strokeColor=default;align=center;verticalAlign=middle;fontFamily=Helvetica;fontSize=11;fontColor=default;labelBackgroundColor=default;endArrow=none;endFill=0;" edge="1" parent="1" source="7zw94ZbZw6cgDd5bHP66-5" target="7zw94ZbZw6cgDd5bHP66-11">
          <mxGeometry relative="1" as="geometry" />
        </mxCell>
        <mxCell id="7zw94ZbZw6cgDd5bHP66-26" style="edgeStyle=none;rounded=0;orthogonalLoop=1;jettySize=auto;html=1;strokeColor=default;align=center;verticalAlign=middle;fontFamily=Helvetica;fontSize=11;fontColor=default;labelBackgroundColor=default;endArrow=none;endFill=0;" edge="1" parent="1" source="7zw94ZbZw6cgDd5bHP66-5" target="7zw94ZbZw6cgDd5bHP66-10">
          <mxGeometry relative="1" as="geometry" />
        </mxCell>
        <mxCell id="7zw94ZbZw6cgDd5bHP66-31" style="edgeStyle=none;rounded=0;orthogonalLoop=1;jettySize=auto;html=1;strokeColor=default;align=center;verticalAlign=middle;fontFamily=Helvetica;fontSize=11;fontColor=default;labelBackgroundColor=default;endArrow=none;endFill=0;" edge="1" parent="1" source="7zw94ZbZw6cgDd5bHP66-5" target="7zw94ZbZw6cgDd5bHP66-9">
          <mxGeometry relative="1" as="geometry" />
        </mxCell>
        <mxCell id="7zw94ZbZw6cgDd5bHP66-32" style="edgeStyle=none;rounded=0;orthogonalLoop=1;jettySize=auto;html=1;strokeColor=default;align=center;verticalAlign=middle;fontFamily=Helvetica;fontSize=11;fontColor=default;labelBackgroundColor=default;endArrow=none;endFill=0;" edge="1" parent="1" source="7zw94ZbZw6cgDd5bHP66-5" target="7zw94ZbZw6cgDd5bHP66-8">
          <mxGeometry relative="1" as="geometry" />
        </mxCell>
        <mxCell id="7zw94ZbZw6cgDd5bHP66-5" value="Client" style="shape=umlActor;verticalLabelPosition=bottom;verticalAlign=top;html=1;outlineConnect=0;" vertex="1" parent="1">
          <mxGeometry x="50" y="560" width="30" height="60" as="geometry" />
        </mxCell>
        <mxCell id="7zw94ZbZw6cgDd5bHP66-22" style="rounded=0;orthogonalLoop=1;jettySize=auto;html=1;endArrow=none;endFill=0;" edge="1" parent="1" source="7zw94ZbZw6cgDd5bHP66-6" target="7zw94ZbZw6cgDd5bHP66-12">
          <mxGeometry relative="1" as="geometry" />
        </mxCell>
        <mxCell id="7zw94ZbZw6cgDd5bHP66-27" style="edgeStyle=none;rounded=0;orthogonalLoop=1;jettySize=auto;html=1;strokeColor=default;align=center;verticalAlign=middle;fontFamily=Helvetica;fontSize=11;fontColor=default;labelBackgroundColor=default;endArrow=none;endFill=0;" edge="1" parent="1" source="7zw94ZbZw6cgDd5bHP66-6" target="7zw94ZbZw6cgDd5bHP66-10">
          <mxGeometry relative="1" as="geometry" />
        </mxCell>
        <mxCell id="7zw94ZbZw6cgDd5bHP66-6" value="visiteur&lt;div&gt;&lt;br&gt;&lt;/div&gt;" style="shape=umlActor;verticalLabelPosition=bottom;verticalAlign=top;html=1;outlineConnect=0;" vertex="1" parent="1">
          <mxGeometry x="770" y="510" width="30" height="60" as="geometry" />
        </mxCell>
        <mxCell id="7zw94ZbZw6cgDd5bHP66-7" value="Gérer les menus" style="ellipse;whiteSpace=wrap;html=1;" vertex="1" parent="1">
          <mxGeometry x="280" y="170" width="120" height="80" as="geometry" />
        </mxCell>
        <mxCell id="7zw94ZbZw6cgDd5bHP66-8" value="Gérer ses données personnelle" style="ellipse;whiteSpace=wrap;html=1;" vertex="1" parent="1">
          <mxGeometry x="310" y="500" width="120" height="80" as="geometry" />
        </mxCell>
        <mxCell id="7zw94ZbZw6cgDd5bHP66-9" value="Gérer ses réservations" style="ellipse;whiteSpace=wrap;html=1;" vertex="1" parent="1">
          <mxGeometry x="250" y="600" width="120" height="80" as="geometry" />
        </mxCell>
        <mxCell id="7zw94ZbZw6cgDd5bHP66-10" value="Réserver une table" style="ellipse;whiteSpace=wrap;html=1;" vertex="1" parent="1">
          <mxGeometry x="380" y="750" width="120" height="80" as="geometry" />
        </mxCell>
        <mxCell id="7zw94ZbZw6cgDd5bHP66-11" value="Afficher la carte" style="ellipse;whiteSpace=wrap;html=1;" vertex="1" parent="1">
          <mxGeometry x="370" y="410" width="120" height="80" as="geometry" />
        </mxCell>
        <mxCell id="7zw94ZbZw6cgDd5bHP66-12" value="Inscription" style="ellipse;whiteSpace=wrap;html=1;" vertex="1" parent="1">
          <mxGeometry x="510" y="550" width="120" height="80" as="geometry" />
        </mxCell>
        <mxCell id="7zw94ZbZw6cgDd5bHP66-13" value="Gérer les images" style="ellipse;whiteSpace=wrap;html=1;" vertex="1" parent="1">
          <mxGeometry x="400" y="210" width="120" height="80" as="geometry" />
        </mxCell>
        <mxCell id="7zw94ZbZw6cgDd5bHP66-41" style="edgeStyle=none;rounded=0;orthogonalLoop=1;jettySize=auto;html=1;strokeColor=default;align=center;verticalAlign=middle;fontFamily=Helvetica;fontSize=11;fontColor=default;labelBackgroundColor=default;endArrow=open;endFill=0;dashed=1;" edge="1" parent="1" source="7zw94ZbZw6cgDd5bHP66-14" target="7zw94ZbZw6cgDd5bHP66-16">
          <mxGeometry relative="1" as="geometry" />
        </mxCell>
        <mxCell id="7zw94ZbZw6cgDd5bHP66-42" value="&amp;lt;&amp;lt;extend&amp;gt;&amp;gt;" style="edgeLabel;html=1;align=center;verticalAlign=middle;resizable=0;points=[];fontFamily=Helvetica;fontSize=11;fontColor=default;labelBackgroundColor=default;" vertex="1" connectable="0" parent="7zw94ZbZw6cgDd5bHP66-41">
          <mxGeometry x="-0.1091" y="2" relative="1" as="geometry">
            <mxPoint as="offset" />
          </mxGeometry>
        </mxCell>
        <mxCell id="7zw94ZbZw6cgDd5bHP66-14" value="Gérer la carte" style="ellipse;whiteSpace=wrap;html=1;" vertex="1" parent="1">
          <mxGeometry x="220" y="70" width="120" height="80" as="geometry" />
        </mxCell>
        <mxCell id="7zw94ZbZw6cgDd5bHP66-29" style="edgeStyle=none;rounded=0;orthogonalLoop=1;jettySize=auto;html=1;strokeColor=default;align=center;verticalAlign=middle;fontFamily=Helvetica;fontSize=11;fontColor=default;labelBackgroundColor=default;endArrow=open;endFill=0;dashed=1;" edge="1" parent="1" source="7zw94ZbZw6cgDd5bHP66-15" target="7zw94ZbZw6cgDd5bHP66-10">
          <mxGeometry relative="1" as="geometry" />
        </mxCell>
        <mxCell id="7zw94ZbZw6cgDd5bHP66-30" value="&amp;lt;&amp;lt;include&amp;gt;&amp;gt;" style="edgeLabel;html=1;align=center;verticalAlign=middle;resizable=0;points=[];fontFamily=Helvetica;fontSize=11;fontColor=default;labelBackgroundColor=default;" vertex="1" connectable="0" parent="7zw94ZbZw6cgDd5bHP66-29">
          <mxGeometry x="-0.0327" y="-1" relative="1" as="geometry">
            <mxPoint as="offset" />
          </mxGeometry>
        </mxCell>
        <mxCell id="7zw94ZbZw6cgDd5bHP66-15" value="Connexion" style="ellipse;whiteSpace=wrap;html=1;" vertex="1" parent="1">
          <mxGeometry x="380" y="630" width="120" height="80" as="geometry" />
        </mxCell>
        <mxCell id="7zw94ZbZw6cgDd5bHP66-16" value="Gérer les catégories" style="ellipse;whiteSpace=wrap;html=1;" vertex="1" parent="1">
          <mxGeometry x="450" y="70" width="120" height="80" as="geometry" />
        </mxCell>
        <mxCell id="7zw94ZbZw6cgDd5bHP66-17" value="Gérer les réservations" style="ellipse;whiteSpace=wrap;html=1;" vertex="1" parent="1">
          <mxGeometry x="540" y="260" width="120" height="80" as="geometry" />
        </mxCell>
        <mxCell id="7zw94ZbZw6cgDd5bHP66-18" value="Gérer les informations restaurant" style="ellipse;whiteSpace=wrap;html=1;" vertex="1" parent="1">
          <mxGeometry x="470" y="340" width="120" height="80" as="geometry" />
        </mxCell>
        <mxCell id="7zw94ZbZw6cgDd5bHP66-23" style="rounded=0;orthogonalLoop=1;jettySize=auto;html=1;endArrow=none;endFill=0;" edge="1" parent="1" source="7zw94ZbZw6cgDd5bHP66-6" target="7zw94ZbZw6cgDd5bHP66-11">
          <mxGeometry relative="1" as="geometry" />
        </mxCell>
        <mxCell id="7zw94ZbZw6cgDd5bHP66-37" style="edgeStyle=none;rounded=0;orthogonalLoop=1;jettySize=auto;html=1;entryX=0.025;entryY=0.65;entryDx=0;entryDy=0;entryPerimeter=0;strokeColor=default;align=center;verticalAlign=middle;fontFamily=Helvetica;fontSize=11;fontColor=default;labelBackgroundColor=default;endArrow=none;endFill=0;" edge="1" parent="1" source="7zw94ZbZw6cgDd5bHP66-4" target="7zw94ZbZw6cgDd5bHP66-17">
          <mxGeometry relative="1" as="geometry" />
        </mxCell>
        <mxCell id="7zw94ZbZw6cgDd5bHP66-38" style="edgeStyle=none;rounded=0;orthogonalLoop=1;jettySize=auto;html=1;entryX=0.017;entryY=0.688;entryDx=0;entryDy=0;entryPerimeter=0;strokeColor=default;align=center;verticalAlign=middle;fontFamily=Helvetica;fontSize=11;fontColor=default;labelBackgroundColor=default;endArrow=none;endFill=0;" edge="1" parent="1" source="7zw94ZbZw6cgDd5bHP66-4" target="7zw94ZbZw6cgDd5bHP66-13">
          <mxGeometry relative="1" as="geometry" />
        </mxCell>
        <mxCell id="7zw94ZbZw6cgDd5bHP66-40" style="edgeStyle=none;rounded=0;orthogonalLoop=1;jettySize=auto;html=1;entryX=0.375;entryY=0.988;entryDx=0;entryDy=0;entryPerimeter=0;strokeColor=default;align=center;verticalAlign=middle;fontFamily=Helvetica;fontSize=11;fontColor=default;labelBackgroundColor=default;endArrow=none;endFill=0;" edge="1" parent="1" source="7zw94ZbZw6cgDd5bHP66-4" target="7zw94ZbZw6cgDd5bHP66-14">
          <mxGeometry relative="1" as="geometry" />
        </mxCell>
        <mxCell id="7zw94ZbZw6cgDd5bHP66-43" value="Quai Antique" style="text;strokeColor=none;fillColor=none;html=1;fontSize=11;fontStyle=1;verticalAlign=middle;align=center;fontFamily=Helvetica;fontColor=default;labelBackgroundColor=default;" vertex="1" parent="1">
          <mxGeometry x="550" y="20" width="100" height="40" as="geometry" />
        </mxCell>
      </root>
    </mxGraphModel>
  </diagram>
</mxfile>
